<svg width="42" height="42" viewBox="0 0 42 42" fill="none" xmlns="http://www.w3.org/2000/svg">
<path d="M5.20919 19.4652C5.66964 19.4652 6.11123 19.6476 6.43681 19.9724C6.76239 20.2972 6.9453 20.7376 6.9453 21.1969C6.92463 24.4406 8.03855 27.59 10.0952 30.1025C12.1519 32.6151 15.0225 34.3337 18.2127 34.9622C21.403 35.5907 24.713 35.0899 27.5729 33.5459C30.4328 32.0019 32.6634 29.5115 33.8805 26.5036C35.0977 23.4956 35.2252 20.1584 34.2411 17.0668C33.257 13.9751 31.223 11.3226 28.4892 9.56591C25.7555 7.80927 22.4932 7.05852 19.2643 7.44298C16.0354 7.82743 13.0419 9.32301 10.7995 11.6721H14.9661C15.4266 11.6721 15.8682 11.8546 16.1938 12.1794C16.5193 12.5041 16.7022 12.9446 16.7022 13.4039C16.7022 13.8632 16.5193 14.3037 16.1938 14.6285C15.8682 14.9532 15.4266 15.1357 14.9661 15.1357H7.10155C6.64111 15.1357 6.19952 14.9532 5.87394 14.6285C5.54835 14.3037 5.36544 13.8632 5.36544 13.4039V5.6109C5.36544 5.15161 5.54835 4.71112 5.87394 4.38635C6.19952 4.06158 6.64111 3.87912 7.10155 3.87912C7.562 3.87912 8.00359 4.06158 8.32917 4.38635C8.65475 4.71112 8.83766 5.15161 8.83766 5.6109V8.67616C11.7289 5.91926 15.4857 4.24271 19.4731 3.92991C23.4604 3.61711 27.4338 4.68725 30.7215 6.95943C34.0092 9.2316 36.4095 12.5664 37.5168 16.4002C38.624 20.234 38.3703 24.3316 36.7984 28.0003C35.2265 31.669 32.433 34.6838 28.8899 36.5351C25.3469 38.3863 21.2717 38.9605 17.3532 38.1606C13.4348 37.3606 9.91336 35.2356 7.38431 32.1447C4.85525 29.0538 3.47366 25.1867 3.47308 21.1969C3.47308 20.7376 3.65599 20.2972 3.98158 19.9724C4.30716 19.6476 4.74874 19.4652 5.20919 19.4652Z" fill="white"/>
<path opacity="0.7" d="M15.888 25.8452V18.5852L14.262 19.5752V18.1772L15.888 17.2052H17.166V25.8452H15.888ZM22.4565 26.0252C21.8685 26.0252 21.3485 25.8972 20.8965 25.6412C20.4445 25.3812 20.0885 25.0252 19.8285 24.5732C19.5725 24.1212 19.4445 23.6012 19.4445 23.0132V20.0372C19.4445 19.4492 19.5725 18.9292 19.8285 18.4772C20.0885 18.0252 20.4445 17.6712 20.8965 17.4152C21.3485 17.1552 21.8685 17.0252 22.4565 17.0252C23.0445 17.0252 23.5645 17.1552 24.0165 17.4152C24.4685 17.6712 24.8225 18.0252 25.0785 18.4772C25.3385 18.9292 25.4685 19.4492 25.4685 20.0372V23.0132C25.4685 23.6012 25.3385 24.1212 25.0785 24.5732C24.8225 25.0252 24.4685 25.3812 24.0165 25.6412C23.5645 25.8972 23.0445 26.0252 22.4565 26.0252ZM22.4565 24.8252C22.7765 24.8252 23.0665 24.7492 23.3265 24.5972C23.5905 24.4412 23.8005 24.2332 23.9565 23.9732C24.1125 23.7092 24.1905 23.4152 24.1905 23.0912V19.9472C24.1905 19.6272 24.1125 19.3372 23.9565 19.0772C23.8005 18.8132 23.5905 18.6052 23.3265 18.4532C23.0665 18.2972 22.7765 18.2192 22.4565 18.2192C22.1365 18.2192 21.8445 18.2972 21.5805 18.4532C21.3205 18.6052 21.1125 18.8132 20.9565 19.0772C20.8005 19.3372 20.7225 19.6272 20.7225 19.9472V23.0912C20.7225 23.4152 20.8005 23.7092 20.9565 23.9732C21.1125 24.2332 21.3205 24.4412 21.5805 24.5972C21.8445 24.7492 22.1365 24.8252 22.4565 24.8252Z" fill="white"/>
</svg>
