<svg width="42" height="42" viewBox="0 0 42 42" fill="none" xmlns="http://www.w3.org/2000/svg">
<path d="M36.7918 19.1389C36.3313 19.1389 35.8898 19.3218 35.5642 19.6474C35.2386 19.973 35.0557 20.4146 35.0557 20.875C35.0763 24.1268 33.9624 27.284 31.9058 29.8029C29.8491 32.3217 26.9785 34.0446 23.7882 34.6747C20.598 35.3048 17.2879 34.8027 14.4281 33.2548C11.5682 31.707 9.33762 29.2104 8.12047 26.1949C6.90331 23.1794 6.77579 19.8339 7.75987 16.7345C8.74395 13.6351 10.778 10.9759 13.5117 9.2149C16.2455 7.45387 19.5077 6.70124 22.7367 7.08666C25.9656 7.47207 28.9591 8.97139 31.2015 11.3264H27.0348C26.5744 11.3264 26.1328 11.5093 25.8072 11.8349C25.4816 12.1605 25.2987 12.6021 25.2987 13.0625C25.2987 13.523 25.4816 13.9645 25.8072 14.2901C26.1328 14.6157 26.5744 14.7986 27.0348 14.7986H34.8994C35.3599 14.7986 35.8015 14.6157 36.127 14.2901C36.4526 13.9645 36.6355 13.523 36.6355 13.0625V5.25001C36.6355 4.78956 36.4526 4.34797 36.127 4.02239C35.8015 3.69681 35.3599 3.5139 34.8994 3.5139C34.439 3.5139 33.9974 3.69681 33.6718 4.02239C33.3462 4.34797 33.1633 4.78956 33.1633 5.25001V8.32292C30.2721 5.55914 26.5153 3.8784 22.5279 3.56481C18.5405 3.25123 14.5672 4.32404 11.2795 6.6019C7.9918 8.87976 5.59145 12.2229 4.48419 16.0663C3.37693 19.9097 3.63069 24.0175 5.20256 27.6954C6.77443 31.3732 9.568 34.3956 13.111 36.2515C16.6541 38.1074 20.7293 38.683 24.6478 37.881C28.5662 37.0791 32.0876 34.9488 34.6167 31.8501C37.1457 28.7515 38.5273 24.8747 38.5279 20.875C38.5279 20.4146 38.345 19.973 38.0194 19.6474C37.6938 19.3218 37.2522 19.1389 36.7918 19.1389Z" fill="white"/>
<path opacity="0.7" d="M16.222 25.5V18.24L14.596 19.23V17.832L16.222 16.86H17.5V25.5H16.222ZM22.7905 25.68C22.2025 25.68 21.6825 25.552 21.2305 25.296C20.7785 25.036 20.4225 24.68 20.1625 24.228C19.9065 23.776 19.7785 23.256 19.7785 22.668V19.692C19.7785 19.104 19.9065 18.584 20.1625 18.132C20.4225 17.68 20.7785 17.326 21.2305 17.07C21.6825 16.81 22.2025 16.68 22.7905 16.68C23.3785 16.68 23.8985 16.81 24.3505 17.07C24.8025 17.326 25.1565 17.68 25.4125 18.132C25.6725 18.584 25.8025 19.104 25.8025 19.692V22.668C25.8025 23.256 25.6725 23.776 25.4125 24.228C25.1565 24.68 24.8025 25.036 24.3505 25.296C23.8985 25.552 23.3785 25.68 22.7905 25.68ZM22.7905 24.48C23.1105 24.48 23.4005 24.404 23.6605 24.252C23.9245 24.096 24.1345 23.888 24.2905 23.628C24.4465 23.364 24.5245 23.07 24.5245 22.746V19.602C24.5245 19.282 24.4465 18.992 24.2905 18.732C24.1345 18.468 23.9245 18.26 23.6605 18.108C23.4005 17.952 23.1105 17.874 22.7905 17.874C22.4705 17.874 22.1785 17.952 21.9145 18.108C21.6545 18.26 21.4465 18.468 21.2905 18.732C21.1345 18.992 21.0565 19.282 21.0565 19.602V22.746C21.0565 23.07 21.1345 23.364 21.2905 23.628C21.4465 23.888 21.6545 24.096 21.9145 24.252C22.1785 24.404 22.4705 24.48 22.7905 24.48Z" fill="white"/>
</svg>
